<svg width="30" height="40" viewBox="0 0 30 40" fill="none" xmlns="http://www.w3.org/2000/svg">
<g clip-path="url(#clip0_782_861)">
<path d="M0 15C0 6.71573 6.71573 0 15 0C23.2843 0 30 6.71573 30 15V40H0V15Z" fill="white"/>
<path d="M15 0.75C22.8701 0.75 29.25 7.12994 29.25 15V39.3232H0.75V15C0.75 7.12994 7.12994 0.75 15 0.75Z" stroke="#0F2311" stroke-width="1.5"/>
<path d="M14.9996 4.39966C20.7933 4.39966 25.4906 9.09626 25.4908 14.8899V39.3235H4.5094V14.8899C4.5096 9.09639 9.20613 4.39986 14.9996 4.39966Z" stroke="#0F2311" stroke-width="1.5"/>
<path d="M15.0002 8.04932C18.7177 8.04945 21.7317 11.0633 21.7317 14.7808V39.3228H8.2688V14.7808C8.2688 11.0632 11.2827 8.04932 15.0002 8.04932Z" stroke="#0F2311" stroke-width="1.5"/>
<path d="M14.9999 11.699C16.6411 11.699 17.9715 13.0294 17.9716 14.6707V39.323H12.0282V14.6707C12.0283 13.0295 13.3587 11.699 14.9999 11.699Z" stroke="#0F2311" stroke-width="1.5"/>
<rect x="11.2782" y="52.8467" width="29.1241" height="41.203" rx="14.562" transform="rotate(-90 11.2782 52.8467)" fill="white"/>
<path d="M12.0282 38.2842C12.0284 30.6562 18.2127 24.4727 25.8407 24.4727L51.8065 24.4727V52.0967H25.8407C18.2125 52.0967 12.0282 45.9124 12.0282 38.2842Z" stroke="#0F2311" stroke-width="1.5"/>
<path d="M15.7876 38.2849C15.7876 32.6725 20.3373 28.122 25.9497 28.1218L51.8062 28.1218V48.447H25.9497C20.3374 48.4469 15.7878 43.8972 15.7876 38.2849Z" stroke="#0F2311" stroke-width="1.5"/>
<path d="M19.547 38.2847C19.547 34.6878 22.4628 31.772 26.0597 31.772H51.8068V44.7974H26.0597C22.4628 44.7973 19.547 41.8815 19.547 38.2847Z" stroke="#0F2311" stroke-width="1.5"/>
<path d="M23.3064 38.2844C23.3065 36.7032 24.5885 35.4211 26.1697 35.4211H51.8064V41.1477H26.1697C24.5884 41.1477 23.3064 39.8657 23.3064 38.2844Z" stroke="#0F2311" stroke-width="1.5"/>
<rect x="16.8422" y="23.7227" width="29.1241" height="41.203" rx="14.562" transform="rotate(90 16.8422 23.7227)" fill="white"/>
<path d="M16.0922 38.2852C16.0919 45.9131 9.90769 52.0967 2.27966 52.0967H-23.6862V24.4727L2.27966 24.4727C9.90784 24.4727 16.0922 30.657 16.0922 38.2852Z" stroke="#0F2311" stroke-width="1.5"/>
<path d="M12.3328 38.2844C12.3328 43.8969 7.78306 48.4473 2.17065 48.4475H-23.6858V28.1223L2.17065 28.1223C7.78296 28.1225 12.3326 32.6721 12.3328 38.2844Z" stroke="#0F2311" stroke-width="1.5"/>
<path d="M8.57336 38.2847C8.57336 41.8815 5.65754 44.7973 2.06067 44.7974H-23.6864V31.772L2.06067 31.772C5.65751 31.772 8.57332 34.6878 8.57336 38.2847Z" stroke="#0F2311" stroke-width="1.5"/>
<path d="M4.81396 38.2849C4.81389 39.8661 3.5319 41.1482 1.95068 41.1482H-23.686V35.4216H1.95068C3.53195 35.4216 4.81396 36.7036 4.81396 38.2849Z" stroke="#0F2311" stroke-width="1.5"/>
<path d="M15 0.75C22.8701 0.75 29.25 7.12994 29.25 15V39.3232H0.75V15C0.75 7.12994 7.12994 0.75 15 0.75Z" stroke="#0F2311" stroke-width="1.5"/>
</g>
<defs>
<clipPath id="clip0_782_861">
<path d="M0 15C0 6.71573 6.71573 0 15 0C23.2843 0 30 6.71573 30 15V40H0V15Z" fill="white"/>
</clipPath>
</defs>
</svg>
