<svg width="41" height="55" viewBox="0 0 41 55" fill="none" xmlns="http://www.w3.org/2000/svg">
<g clip-path="url(#clip0_359_1056)">
<path d="M0 20.5C0 9.17816 9.17816 0 20.5 0C31.8218 0 41 9.17816 41 20.5V55H0V20.5Z" fill="#0F2311"/>
<path d="M20.5 0.75C31.4076 0.75 40.25 9.59238 40.25 20.5V54.3506H0.75V20.5C0.750004 9.59238 9.59238 0.75 20.5 0.75Z" stroke="white" stroke-width="1.5"/>
<path d="M20.5001 5.76825C28.5701 5.76833 35.1124 12.3105 35.1124 20.3806V54.3503H5.88782V20.3806C5.88782 12.3105 12.4301 5.76825 20.5001 5.76825Z" stroke="white" stroke-width="1.5"/>
<path d="M20.5002 10.7865C25.7326 10.7867 29.9739 15.0287 29.9739 20.2611V54.35H11.0256V20.2611C11.0256 15.0286 15.2677 10.7865 20.5002 10.7865Z" stroke="white" stroke-width="1.5"/>
<path d="M20.5005 15.8047C22.8952 15.805 24.8364 17.7468 24.8364 20.1417V54.3506H16.1636V20.1417C16.1636 17.7467 18.1055 15.8047 20.5005 15.8047Z" stroke="white" stroke-width="1.5"/>
<rect x="15.4136" y="72.6642" width="40.0456" height="56.3108" rx="20.0228" transform="rotate(-90 15.4136 72.6642)" fill="#0F2311"/>
<path d="M16.1636 52.6418C16.1636 41.9978 24.7921 33.3685 35.436 33.3683H71.0767V71.9142H35.436C24.7922 71.9141 16.1638 63.2856 16.1636 52.6418Z" stroke="white" stroke-width="1.5"/>
<path d="M21.3014 52.6411C21.3016 44.7687 27.6838 38.3872 35.5563 38.3872H71.0768V66.896H35.5563C27.6837 66.896 21.3014 60.5137 21.3014 52.6411Z" stroke="white" stroke-width="1.5"/>
<path d="M26.4392 52.6414C26.4392 47.5403 30.5745 43.4051 35.6755 43.4051H71.0769V61.8777H35.6755C30.5745 61.8777 26.4392 57.7425 26.4392 52.6414Z" stroke="white" stroke-width="1.5"/>
<path d="M31.5771 52.6417C31.5771 50.3122 33.4655 48.4231 35.7949 48.423H71.0771V56.8595H35.7949C33.4656 56.8593 31.5773 54.9711 31.5771 52.6417Z" stroke="white" stroke-width="1.5"/>
<rect x="23.0176" y="32.6186" width="40.0456" height="56.3108" rx="20.0228" transform="rotate(90 23.0176 32.6186)" fill="#0F2311"/>
<path d="M22.2676 52.6411C22.2676 63.285 13.639 71.9143 2.99512 71.9145H-32.6455V33.3686H2.99512C13.6389 33.3688 22.2674 41.9973 22.2676 52.6411Z" stroke="white" stroke-width="1.5"/>
<path d="M17.1298 52.6418C17.1296 60.5142 10.7473 66.8957 2.87488 66.8957H-32.6456V38.3869H2.87488C10.7475 38.3869 17.1298 44.7692 17.1298 52.6418Z" stroke="white" stroke-width="1.5"/>
<path d="M11.9919 52.6414C11.9919 57.7425 7.85669 61.8778 2.75562 61.8778H-32.6458V43.4051H2.75562C7.85669 43.4051 11.9919 47.5404 11.9919 52.6414Z" stroke="white" stroke-width="1.5"/>
<path d="M6.854 52.6411C6.854 54.9706 4.96567 56.8597 2.63623 56.8599H-32.646V48.4234H2.63623C4.96557 48.4235 6.85385 50.3118 6.854 52.6411Z" stroke="white" stroke-width="1.5"/>
<path d="M20.5 0.75C31.4076 0.75 40.25 9.59238 40.25 20.5V54.3506H0.75V20.5C0.750004 9.59238 9.59238 0.75 20.5 0.75Z" stroke="white" stroke-width="1.5"/>
</g>
<defs>
<clipPath id="clip0_359_1056">
<path d="M0 20.5C0 9.17816 9.17816 0 20.5 0C31.8218 0 41 9.17816 41 20.5V55H0V20.5Z" fill="white"/>
</clipPath>
</defs>
</svg>
